<svg xmlns="http://www.w3.org/2000/svg" viewBox="0 0 489.209 489.209" style="enable-background:new 0 0 489.209 489.209" xml:space="preserve"><path d="m418.703 310.251-54.1-29.1-54.1 29.1c-7.3 4.2-15.6 3.1-21.9-1-6.2-4.2-9.4-12.5-8.3-19.8l10.4-62.4-44.7-44.7c-5.2-5.2-7.3-13.5-5.2-20.8s8.3-12.5 16.6-13.5l61.4-9.4 27.1-57.2c3.1-7.3 10.4-11.4 18.7-11.4 8.3 0 14.6 4.2 18.7 11.4l27.1 57.2 61.4 9.4c7.3 1 13.5 6.2 16.6 13.5 2.1 7.3 0 15.6-5.2 20.8l-44.7 44.7 10.4 62.4c1 7.3-2.1 15.6-8.3 19.8-4.2 2-12.9 4.9-21.9 1zm-45.8-70.7 28.1 14.6-5.2-32.3c-1-6.2 1-13.5 5.2-17.7l22.9-22.9-32.3-5.2c-6.2-1-12.5-5.2-15.6-11.4l-13.5-28.1-13.5 28.1c-3.1 6.2-8.3 10.4-15.6 11.4l-32.3 5.2 22.9 22.9c4.2 4.2 7.3 11.4 5.2 17.7l-2.1 33.3 28.1-14.6c7-5.7 14.6-2.1 17.7-1z"/><path d="M11.903 321.751c-41.6-128 24.9-300.7 214.3-321.5 9.4-1 17.7 5.2 20.8 13.5s0 18.7-8.3 23.9c-76 51-108.2 146.7-80.1 234.1 29.1 87.4 110.3 144.6 200.8 139.4 9.4-1 17.7 5.2 20.8 13.5 3.1 8.3 0 18.7-8.3 23.9-171.8 107.1-331.6-20.2-360-126.8zm145.6-263.3c-91.5 42.7-139.4 150.9-107.1 250.8 27 83.2 114 158.9 233 134.2-76-21.9-137.3-80.1-163.4-158.2-24.9-79-9.3-163.3 37.5-226.8z"/></svg>